<?xml version="1.0" standalone="no"?>
<!DOCTYPE svg PUBLIC "-//W3C//DTD SVG 20010904//EN"
 "http://www.w3.org/TR/2001/REC-SVG-20010904/DTD/svg10.dtd">
<svg version="1.0" xmlns="http://www.w3.org/2000/svg"
 width="250.000000pt" height="250.000000pt" viewBox="0 0 250.000000 250.000000"
 preserveAspectRatio="xMidYMid meet">
<metadata>
Created by potrace 1.11, written by Peter Selinger 2001-2013
</metadata>
<g transform="translate(0.000000,250.000000) scale(0.100000,-0.100000)"
fill="#000000" stroke="none">
<path d="M786 2030 c-242 -87 -446 -161 -453 -166 -11 -7 -1 -116 57 -619 39
-335 74 -613 78 -617 4 -4 181 -104 395 -222 l387 -216 388 216 c213 118 390
218 394 222 12 11 150 1224 141 1233 -13 13 -910 329 -930 328 -10 -1 -216
-72 -457 -159z m754 -701 c157 -353 286 -647 288 -655 5 -19 -203 -20 -215 -1
-4 6 -33 73 -63 147 l-55 135 -245 0 -245 0 -55 -135 c-30 -74 -59 -141 -63
-147 -12 -19 -220 -18 -215 1 5 24 573 1295 578 1295 3 0 133 -288 290 -640z"/>
<path d="M1164 1335 l-82 -195 168 0 168 0 -82 195 c-44 107 -83 195 -86 195
-3 0 -42 -88 -86 -195z"/>
</g>
</svg>
